# xmcd
#
# Track frame offsets:
#	150
#	11223
#	20496
#	31944
#	46092
#	55965
#	70113
#	81861
#	96459
#	109557
#	119580
#	132603
#
# Disc length: 1911 seconds
#
# Revision: 0
# Processed by: cddbd v1.5.2PL0 Copyright (c) Steve Scherf et al.
# Submitted via: dBpowerAMP V4.0
#
DISCID=a307750c
DTITLE=Frankie Lane - Legends
DYEAR=1900
DGENRE=Country
TTITLE0=High Noon
TTITLE1=Rawhide
TTITLE2=Love is a golden Ring
TTITLE3=Riders in the sky
TTITLE4=Gunfight ai OK corral
TTITLE5=Careless Love
TTITLE6=Mule Train
TTITLE7=Jezebel
TTITLE8=The Cry of the Wild Goose
TTITLE9=I Believe
TTITLE10=Cool Water
TTITLE11=Sixteen Tons
EXTD=
EXTT0=
EXTT1=
EXTT2=
EXTT3=
EXTT4=
EXTT5=
EXTT6=
EXTT7=
EXTT8=
EXTT9=
EXTT10=
EXTT11=
PLAYORDER=
